<svg width="93" height="93" viewBox="0 0 93 93" fill="none" xmlns="http://www.w3.org/2000/svg">
<path d="M46.375 0C20.776 0 0 20.7289 0 46.2698C0 71.8108 20.776 92.5397 46.375 92.5397C71.974 92.5397 92.75 71.8108 92.75 46.2698C92.75 20.7289 71.974 0 46.375 0ZM46.375 13.881C54.0732 13.881 60.2875 20.0811 60.2875 27.7619C60.2875 35.4427 54.0732 41.6429 46.375 41.6429C38.6768 41.6429 32.4625 35.4427 32.4625 27.7619C32.4625 20.0811 38.6768 13.881 46.375 13.881ZM46.375 79.5841C34.7812 79.5841 24.5324 73.6616 18.55 64.6852C18.6891 55.4775 37.1 50.4341 46.375 50.4341C55.6036 50.4341 74.0609 55.4775 74.2 64.6852C68.2176 73.6616 57.9688 79.5841 46.375 79.5841Z" fill="#F2F2F2"/>
</svg>
